Coordinates
version=1
nRows=17
nColumns=40
inDegrees=yes
endheader
time	pelvis_tilt	pelvis_list	pelvis_rotation	pelvis_tx	pelvis_ty	pelvis_tz	hip_flexion_r	hip_adduction_r	hip_rotation_r	knee_angle_r	knee_angle_r_beta	ankle_angle_r	subtalar_angle_r	mtp_angle_r	hip_flexion_l	hip_adduction_l	hip_rotation_l	knee_angle_l	knee_angle_l_beta	ankle_angle_l	subtalar_angle_l	mtp_angle_l	lumbar_extension	lumbar_bending	lumbar_rotation	arm_flex_r	arm_add_r	arm_rot_r	elbow_flex_r	pro_sup_r	wrist_flex_r	wrist_dev_r	arm_flex_l	arm_add_l	arm_rot_l	elbow_flex_l	pro_sup_l	wrist_flex_l	wrist_dev_l
1760624915.70000005	      0.02336988	     -0.11150754	      0.01374743	     -0.02635429	      0.92860049	     -0.01158430	     80.00000000	     -7.00000000	      0.00000000	     80.00000000	      1.39626340	      0.00000000	      0.00000000	      0.00000000	     80.00000000	     -7.00000000	      0.00000000	     80.00000000	      1.39626340	      0.00000000	      0.00000000	      0.00000000	     -5.41574313	     -0.84531002	     -1.15802560	      3.58472352	    -18.30485919	     -0.60441105	     19.67414620	      0.00000000	    -16.88948346	     15.02515771	      2.18560636	     -2.45406386	     -1.21670211	      3.55778348	      0.00000000	     -0.18246223	      0.60549232
1760624915.73399997	      0.02498760	     -0.11055495	      0.02804048	     -0.02749593	      0.93038972	     -0.01175881	     80.00000000	     -7.00000000	      0.00000000	     80.00000000	      1.39626340	      0.00000000	      0.00000000	      0.00000000	     80.00000000	     -7.00000000	      0.00000000	     80.00000000	      1.39626340	      0.00000000	      0.00000000	      0.00000000	     -4.72057684	     -0.98783413	     -0.99736635	      3.17598185	    -18.44221469	     -0.70071184	     20.26429938	      0.00000000	    -17.74929656	     15.12955226	      1.70519700	     -2.51842135	     -1.03384537	      3.33844648	      0.00000000	     -0.19126865	      0.61401759
1760624915.76699996	      0.02101817	     -0.10691672	      0.04019884	     -0.02904157	      0.93214777	     -0.01188863	     80.00000000	     -7.00000000	      0.00000000	     80.00000000	      1.39626340	      0.00000000	      0.00000000	      0.00000000	     80.00000000	     -7.00000000	      0.00000000	     80.00000000	      1.39626340	      0.00000000	      0.00000000	      0.00000000	     -4.40431727	     -1.22090988	     -0.87744896	      3.16369110	    -18.54082646	     -0.58422984	     20.24281316	      0.00000000	    -17.97843275	     15.42988035	      1.57268821	     -2.68135114	     -0.87010358	      3.15428759	      0.00000000	     -0.20088697	      0.58437924
1760624915.79999995	      0.02165863	     -0.10964065	      0.05052722	     -0.02888600	      0.93220319	     -0.01165431	     80.00000000	     -7.00000000	      0.00000000	     80.00000000	      1.39626340	      0.00000000	      0.00000000	      0.00000000	     80.00000000	     -7.00000000	      0.00000000	     80.00000000	      1.39626340	      0.00000000	      0.00000000	      0.00000000	     -4.39991503	     -1.21774789	     -0.89803953	      3.16187309	    -18.54207268	     -0.54297135	     20.27237113	      0.01890742	    -17.95635590	     15.42181026	      1.55817927	     -2.67881682	     -0.81950508	      3.14726526	      0.00000000	     -0.20340082	      0.57687552
1760624915.83400011	      0.01753887	     -0.10556704	      0.07467875	     -0.02858260	      0.93248164	     -0.01164140	     80.00000000	     -7.00000000	      0.00000000	     80.00000000	      1.39626340	      0.00000000	      0.00000000	      0.00000000	     80.00000000	     -7.00000000	      0.00000000	     80.00000000	      1.39626340	      0.00000000	      0.00000000	      0.00000000	     -4.29992209	     -1.24758586	     -0.93902824	      3.05022064	    -18.66681940	     -0.43466806	     20.34896626	      0.00000000	    -17.98385341	     15.52099150	      1.53507186	     -2.67264551	     -0.86755991	      3.09677313	      0.00000000	     -0.19415023	      0.60099682
1760624915.86700010	      0.00683051	     -0.11186083	      0.09324667	     -0.02863647	      0.93259444	     -0.01195524	     80.00000000	     -7.00000000	      0.00000000	     80.00000000	      1.39626340	      0.00000000	      0.00000000	      0.00000000	     80.00000000	     -7.00000000	      0.00000000	     80.00000000	      1.39626340	      0.00000000	      0.00000000	      0.00000000	     -4.28165188	     -1.19914924	     -0.94751049	      3.14497374	    -18.81260214	     -0.23142804	     20.60921089	      0.00000000	    -18.31019506	     15.52089627	      1.54254412	     -2.61059055	     -0.91768693	      3.10673103	      0.00000000	     -0.21620467	      0.59822833
1760624915.90100002	      0.00900127	     -0.11041770	      0.09587752	     -0.02867923	      0.93298693	     -0.01202565	     80.00000000	     -7.00000000	      0.00000000	     80.00000000	      1.39626340	      0.00000000	      0.00000000	      0.00000000	     80.00000000	     -7.00000000	      0.00000000	     80.00000000	      1.39626340	      0.00000000	      0.00000000	      0.00000000	     -4.19379108	     -1.17945879	     -0.85984748	      3.14921437	    -18.87158181	     -0.19235798	     20.60683815	      0.00000000	    -18.41372046	     15.53193300	      1.48880644	     -2.56802060	     -0.84397882	      3.07319397	      0.00000000	     -0.20221751	      0.60508160
1760624915.93400002	      0.01211153	     -0.11546904	      0.10150079	     -0.02824910	      0.93328864	     -0.01254447	     80.00000000	     -7.00000000	      0.00000000	     80.00000000	      1.39626340	      0.00000000	      0.00000000	      0.00000000	     80.00000000	     -7.00000000	      0.00000000	     80.00000000	      1.39626340	      0.00000000	      0.00000000	      0.00000000	     -4.07627243	     -1.26534201	     -0.87857806	      2.81010616	    -19.06263642	     -0.20667949	     21.36236276	      0.00000000	    -18.91516597	     15.60509953	      1.39883757	     -2.63495639	     -0.87926753	      3.04879274	      0.00000000	     -0.19542371	      0.61731114
1760624915.96799994	      0.01529072	     -0.12209445	      0.09844948	     -0.02814981	      0.93381036	     -0.01244133	     80.00000000	     -7.00000000	      0.00000000	     80.00000000	      1.39626340	      0.00000000	      0.00000000	      0.00000000	     80.00000000	     -7.00000000	      0.00000000	     80.00000000	      1.39626340	      0.00000000	      0.00000000	      0.00000000	     -3.82134273	     -1.36197644	     -0.88846085	      2.20899112	    -19.16600567	     -0.23725688	     22.25303364	      0.00000000	    -19.43714071	     15.57039659	      1.20604169	     -2.69709877	     -0.91303624	      2.97433649	      0.00000000	     -0.20930807	      0.59253181
1760624916.00099993	      0.01512470	     -0.12358708	      0.10016319	     -0.02769806	      0.93426408	     -0.01234154	     80.00000000	     -7.00000000	      0.00000000	     80.00000000	      1.39626340	      0.00000000	      0.00000000	      0.00000000	     80.00000000	     -7.00000000	      0.00000000	     80.00000000	      1.39626340	      0.00000000	      0.00000000	      0.00000000	     -3.81786628	     -1.43173334	     -0.90604292	      2.16244177	    -19.18872766	     -0.24197078	     22.29351606	      0.00000000	    -19.42709643	     15.65622686	      1.20144770	     -2.74456483	     -0.96562539	      2.97298544	      0.00000000	     -0.20622937	      0.57949578
1760624916.03500009	      0.00470235	     -0.12978147	      0.10516783	     -0.02736043	      0.93449423	     -0.01231907	     80.00000000	     -7.00000000	      0.00000000	     80.00000000	      1.39626340	      0.00000000	      0.00000000	      0.00000000	     80.00000000	     -7.00000000	      0.00000000	     80.00000000	      1.39626340	      0.00000000	      0.00000000	      0.00000000	     -3.82527865	     -1.45822441	     -0.92512941	      1.93738013	    -19.29441546	     -0.27205275	     22.90759960	      0.00000000	    -19.80524076	     15.63496742	      1.18589534	     -2.76457552	     -0.99652475	      2.97920920	      0.00000000	     -0.20413994	      0.57119466
1760624916.06800008	     -0.00031679	     -0.12711450	      0.11761595	     -0.02690633	      0.93446027	     -0.01261499	     80.00000000	     -7.00000000	      0.00000000	     80.00000000	      1.39626340	      0.00000000	      0.00000000	      0.00000000	     80.00000000	     -7.00000000	      0.00000000	     80.00000000	      1.39626340	      0.00000000	      0.00000000	      0.00000000	     -3.82231134	     -1.45846330	     -0.93742391	      1.88411740	    -19.37252044	     -0.27987613	     22.92254794	      0.00000000	    -19.77340478	     15.68123697	      1.19466415	     -2.74934990	     -1.02027924	      2.94092861	      0.00000000	     -0.20655005	      0.56141712
1760624916.10200000	      0.00191460	     -0.12873453	      0.13104875	     -0.02630665	      0.93412137	     -0.01267347	     80.00000000	     -7.00000000	      0.00000000	     80.00000000	      1.39626340	      0.00000000	      0.00000000	      0.00000000	     80.00000000	     -7.00000000	      0.00000000	     80.00000000	      1.39626340	      0.00000000	      0.00000000	      0.00000000	     -3.85838447	     -1.48300410	     -0.94543550	      1.83791878	    -19.42611504	     -0.26238327	     22.97053494	      0.00000000	    -19.71665665	     15.73239657	      1.22054874	     -2.76395189	     -1.05896349	      2.92960303	      0.00000000	     -0.22182106	      0.54690775
1760624916.13499999	     -0.00422915	     -0.12966945	      0.15067537	     -0.02583604	      0.93387096	     -0.01268669	     80.00000000	     -7.00000000	      0.00000000	     80.00000000	      1.39626340	      0.00000000	      0.00000000	      0.00000000	     80.00000000	     -7.00000000	      0.00000000	     80.00000000	      1.39626340	      0.00000000	      0.00000000	      0.00000000	     -3.88100735	     -1.48234115	     -0.93786142	      1.85655906	    -19.55364895	     -0.17926601	     22.96493757	      0.00000000	    -19.76627309	     15.82149427	      1.27909012	     -2.75243924	     -1.03549969	      2.86090882	      0.00000000	     -0.21992435	      0.54747982
1760624916.16799998	     -0.00604171	     -0.13070716	      0.15812850	     -0.02527990	      0.93411528	     -0.01231921	     80.00000000	     -7.00000000	      0.00000000	     80.00000000	      1.39626340	      0.00000000	      0.00000000	      0.00000000	     80.00000000	     -7.00000000	      0.00000000	     80.00000000	      1.39626340	      0.00000000	      0.00000000	      0.00000000	     -3.87819737	     -1.50951109	     -0.92838677	      1.79404718	    -19.57714925	     -0.10917827	     22.98422210	      0.00000000	    -19.71919149	     15.84634654	      1.28850254	     -2.77628070	     -1.03741605	      2.83474918	      0.00000000	     -0.20717853	      0.54564640
1760624916.20199990	     -0.00156462	     -0.13749728	      0.15951842	     -0.02518367	      0.93442543	     -0.01255957	     80.00000000	     -7.00000000	      0.00000000	     80.00000000	      1.39626340	      0.00000000	      0.00000000	      0.00000000	     80.00000000	     -7.00000000	      0.00000000	     80.00000000	      1.39626340	      0.00000000	      0.00000000	      0.00000000	     -3.74871986	     -1.50039140	     -0.88339845	      1.51718055	    -19.63906523	     -0.13459383	     22.96072382	      0.00000000	    -19.52134752	     15.88860166	      1.14946106	     -2.77157263	     -0.98656271	      2.82751185	      0.00000000	     -0.20172360	      0.53299599
1760624916.23499990	      0.00927287	     -0.13963457	      0.17775901	     -0.02561005	      0.93482963	     -0.01262303	     80.00000000	     -7.00000000	      0.00000000	     80.00000000	      1.39626340	      0.00000000	      0.00000000	      0.00000000	     80.00000000	     -7.00000000	      0.00000000	     80.00000000	      1.39626340	      0.00000000	      0.00000000	      0.00000000	     -3.74559280	     -1.50141718	     -0.90540329	      1.48865250	    -19.65700206	     -0.10519163	     22.95789000	      0.00000000	    -19.51603432	     15.89332924	      1.12992040	     -2.77681843	     -0.92027319	      2.81504415	      0.00000000	     -0.18487766	      0.53469903
